<svg xmlns="http://www.w3.org/2000/svg" xmlns:xlink="http://www.w3.org/1999/xlink" width="500" zoomAndPan="magnify" viewBox="0 0 375 374.999991" height="500" preserveAspectRatio="xMidYMid meet" version="1.0"><defs><clipPath id="4b1b3cfb09"><path d="M 83.316406 53.621094 L 291 53.621094 L 291 321 L 83.316406 321 Z M 83.316406 53.621094 " clip-rule="nonzero"/></clipPath></defs><g clip-path="url(#4b1b3cfb09)"><path fill="#ffffff" d="M 289.054688 212.773438 C 283.945312 212.875 278.859375 212.355469 273.761719 212.679688 C 273.355469 212.734375 272.914062 212.726562 272.480469 212.71875 C 273 211.664062 273.433594 210.566406 273.683594 209.386719 C 274.878906 205.054688 275.058594 200.507812 273.960938 196.136719 C 273.21875 193.242188 272.230469 190.269531 270.191406 188.015625 C 267.410156 185.105469 264.042969 182.925781 260.648438 180.78125 C 260.421875 180.089844 259.792969 179.53125 259.121094 179.199219 C 259.027344 179.128906 258.925781 179.074219 258.832031 179.003906 C 258.847656 179.019531 258.871094 179.035156 258.902344 179.058594 C 258.101562 178.421875 257.125 178.09375 256.277344 177.542969 C 255.105469 176.824219 255.640625 176.96875 253.667969 175.617188 C 251.597656 174.609375 250.371094 174.382812 248.3125 172.675781 C 248.242188 172.621094 248.179688 172.574219 248.113281 172.523438 C 248.242188 172.621094 248.375 172.722656 248.507812 172.824219 C 247.574219 172.085938 246.613281 171.402344 245.613281 170.757812 C 245.0625 170.425781 244.5 170.113281 243.941406 169.804688 C 244.921875 169.507812 245.898438 169.214844 246.871094 168.925781 C 246.574219 168.703125 246.289062 168.46875 246 168.246094 C 246.589844 168.035156 246.953125 167.53125 247.195312 166.933594 C 247.203125 166.933594 247.203125 166.933594 247.210938 166.933594 C 247.21875 166.910156 247.226562 166.886719 247.234375 166.855469 C 247.597656 166.957031 247.980469 166.941406 248.34375 166.832031 C 248.777344 167.328125 249.4375 167.640625 250.089844 167.5 C 251.054688 167.398438 251.683594 166.535156 252.34375 165.921875 C 252.878906 165.363281 253.40625 164.796875 253.917969 164.214844 C 254.066406 164.207031 254.207031 164.191406 254.359375 164.144531 C 254.398438 164.136719 254.429688 164.113281 254.460938 164.105469 C 255.710938 164.648438 256.96875 164.757812 257.902344 163.492188 C 257.933594 163.429688 257.953125 163.375 257.984375 163.316406 C 258.40625 163.058594 258.730469 162.65625 258.886719 162.1875 C 259.257812 162.523438 259.664062 162.816406 260.152344 162.941406 C 261.246094 163.261719 262.550781 162.429688 262.644531 161.273438 C 262.808594 160.410156 262.277344 159.667969 261.828125 158.953125 C 262.324219 159.0625 262.832031 159.007812 263.328125 158.664062 C 264.28125 159.128906 265.246094 159.246094 266.058594 158.253906 C 266.292969 157.933594 266.410156 157.625 266.457031 157.320312 C 266.503906 157.28125 266.554688 157.242188 266.601562 157.199219 C 267.503906 156.335938 267.246094 154.929688 266.339844 154.222656 C 266.167969 153.609375 265.734375 153.042969 265.050781 152.71875 C 264.886719 152.609375 264.714844 152.5 264.554688 152.390625 C 264.140625 151.609375 263.613281 150.460938 262.816406 148.835938 C 261.261719 145.824219 260.074219 143.160156 260.019531 140.941406 C 259.792969 137.757812 260.019531 134.566406 260.160156 131.386719 C 260.121094 130.382812 260.484375 129.296875 260.113281 128.351562 C 259.757812 127.386719 258.816406 127.054688 257.96875 127.222656 C 261.027344 125.445312 263.746094 122.015625 263.566406 119.003906 C 263.398438 116.890625 262.164062 115.503906 260.5 114.710938 C 261.042969 113.808594 260.742188 112.628906 260.8125 111.605469 C 260.8125 109.609375 260.8125 107.597656 260.429688 105.628906 C 258.605469 98.113281 254.941406 91.117188 250.640625 84.738281 C 247.085938 79.972656 242.683594 75.902344 238.335938 71.875 C 234.089844 68.289062 229.796875 64.640625 224.921875 61.929688 C 221.933594 60.5 218.699219 59.726562 215.625 58.523438 C 211.390625 56.714844 206.992188 55.308594 202.425781 54.664062 C 199.777344 54.238281 197.09375 54.351562 194.421875 54.207031 C 191.527344 54.027344 188.632812 53.824219 185.734375 54.128906 C 182.304688 54.390625 178.949219 55.191406 175.574219 55.820312 C 171.808594 56.425781 168.316406 58 164.9375 59.71875 C 159.691406 62.125 154.753906 65.121094 149.636719 67.78125 C 144.996094 70.320312 141.246094 74.140625 137.269531 77.570312 C 134.210938 80.421875 131.097656 83.261719 128.460938 86.515625 C 125.984375 89.800781 123.703125 93.277344 121.890625 96.972656 C 119.617188 101.949219 117.941406 107.15625 116.605469 112.460938 C 115.992188 114.773438 115.558594 117.132812 115.214844 119.5 C 115.140625 119.757812 115.132812 120.019531 115.167969 120.285156 C 113.191406 121.136719 111.390625 122.355469 109.992188 124.050781 C 105.816406 129.210938 107.492188 135.375 113.625 137.300781 C 113.375 138.238281 113.640625 139.34375 113.453125 140.304688 C 113.445312 140.40625 113.4375 140.484375 113.429688 140.554688 C 113.414062 140.683594 113.390625 140.816406 113.375 140.949219 C 112.933594 143 112.957031 145.085938 112.808594 147.167969 C 112.367188 151.476562 112.273438 153.859375 111.628906 157.3125 C 110.667969 163.617188 107.773438 167.273438 106.453125 173.949219 C 105.894531 175.976562 105.574219 180.113281 108.75 179.570312 C 109.90625 179.128906 110.992188 178.507812 112.066406 177.886719 C 112.195312 178.886719 112.964844 179.6875 114.058594 179.625 C 113.75 181.070312 114.875 182.738281 116.503906 182.273438 C 117.367188 181.992188 117.941406 181.238281 118.5 180.554688 C 119.175781 181.402344 120.589844 181.691406 121.425781 180.78125 C 121.527344 180.648438 121.621094 180.515625 121.722656 180.386719 C 121.722656 180.386719 121.730469 180.394531 121.730469 180.394531 C 121.746094 180.363281 121.769531 180.339844 121.785156 180.308594 C 121.800781 180.292969 121.808594 180.277344 121.816406 180.261719 C 122.148438 181.152344 123.1875 181.765625 124.160156 181.472656 C 124.75 181.300781 125.152344 180.875 125.511719 180.394531 C 125.441406 180.875 125.519531 181.347656 125.882812 181.765625 C 125.90625 181.804688 125.9375 181.828125 125.96875 181.859375 C 124.554688 182.597656 123.15625 183.34375 121.769531 184.128906 C 118.027344 186.308594 113.964844 188.101562 110.929688 191.277344 C 108.058594 194.140625 105.433594 197.316406 103.175781 200.6875 C 101.65625 203.433594 100.503906 206.445312 99.914062 209.535156 C 99.746094 210.753906 99.542969 211.996094 99.605469 213.230469 C 98.433594 212.890625 97.105469 213.238281 95.933594 213.425781 C 95.878906 213.433594 95.839844 213.441406 95.800781 213.449219 C 94.738281 213.550781 93.667969 213.589844 92.601562 213.703125 C 90.839844 213.867188 89.078125 214.101562 87.308594 214.21875 C 86.367188 214.339844 85.257812 214.148438 84.542969 214.890625 C 83.324219 216.035156 84.242188 218.261719 85.917969 218.207031 C 88.386719 218.050781 90.839844 217.742188 93.300781 217.523438 C 94.792969 217.40625 96.289062 217.351562 97.757812 217.011719 C 98.433594 216.964844 99.15625 217.113281 99.777344 216.824219 C 99.96875 216.753906 100.132812 216.664062 100.28125 216.539062 C 100.582031 217.453125 100.949219 218.355469 101.296875 219.246094 C 101.808594 220.832031 104.136719 225.410156 106.421875 227.871094 C 110.410156 232.148438 114.851562 236.347656 120.488281 238.265625 C 124.398438 239.625 128.585938 240.011719 132.683594 240.496094 C 134.3125 240.617188 135.945312 240.820312 137.574219 241 C 135.765625 249.003906 136.222656 257.347656 136.695312 265.492188 C 136.867188 268.84375 136.511719 272.183594 136.496094 275.535156 C 136.542969 280.988281 136.386719 286.429688 136.214844 291.871094 C 136.191406 295.660156 136.214844 299.445312 136.199219 303.226562 C 136.199219 303.28125 136.191406 303.335938 136.183594 303.390625 C 136.207031 303.171875 136.277344 302.800781 136.214844 303.171875 C 136.199219 303.25 136.199219 303.328125 136.183594 303.398438 C 136.183594 303.429688 136.175781 303.460938 136.175781 303.492188 C 136.175781 303.46875 136.175781 303.445312 136.183594 303.414062 C 135.90625 305.035156 135.9375 306.683594 135.9375 308.320312 C 135.84375 308.753906 136.097656 310.082031 136.152344 310.277344 C 136.152344 310.285156 136.152344 310.292969 136.152344 310.292969 C 136.292969 312.542969 136.074219 314.808594 136.386719 317.054688 C 136.410156 318.109375 136.710938 319.320312 137.890625 319.601562 C 138.949219 319.910156 139.933594 319.226562 140.253906 318.273438 C 140.269531 318.265625 140.273438 318.25 140.289062 318.242188 C 143.125 316.316406 145.476562 316.511719 147.882812 316.136719 C 151.136719 315.796875 154.289062 314.871094 157.515625 314.367188 C 163.378906 313.566406 169.324219 314.011719 175.222656 313.871094 C 180.09375 313.582031 185.566406 312.898438 188.910156 313.871094 C 192.910156 314.839844 196.867188 315.941406 200.90625 316.75 C 204.808594 317.363281 207.128906 317.605469 210.164062 318 C 212.960938 318.433594 215.800781 318.320312 218.613281 318.644531 C 219.644531 318.753906 220.636719 319 222.78125 319.523438 C 224.816406 320.035156 227.523438 321.074219 229.183594 319.296875 C 229.890625 318.335938 229.699219 317 229.875 315.859375 C 230.203125 309.539062 230 303.203125 230.0625 296.878906 C 230.015625 291.785156 229.699219 286.699219 229.804688 281.601562 C 230.171875 276.335938 230.21875 268.199219 229.457031 264.832031 C 229.191406 261.453125 229.261719 258.054688 229.253906 254.667969 C 229.574219 251.292969 229.722656 245.097656 229.253906 243.636719 C 229.355469 242.886719 229.132812 242.289062 228.757812 241.875 C 228.96875 241.746094 229.167969 241.597656 229.363281 241.449219 C 229.84375 241.867188 230.527344 242.03125 231.140625 241.859375 C 231.429688 241.785156 231.667969 241.621094 231.917969 241.472656 C 231.949219 241.464844 231.980469 241.457031 232.019531 241.441406 C 234.503906 240.578125 233.050781 241.03125 234.828125 240.269531 C 236.210938 239.6875 239.546875 238.453125 242.179688 237.132812 C 244.703125 236.03125 247.007812 234.5 249.570312 233.484375 C 253.746094 231.503906 257.792969 229.128906 261.511719 226.382812 C 264.125 224.386719 266.175781 221.769531 268.171875 219.175781 C 268.871094 218.230469 269.589844 217.289062 270.273438 216.320312 C 270.585938 216.554688 270.964844 216.691406 271.402344 216.675781 C 275.21875 216.523438 279.039062 216.3125 282.859375 216.625 C 284.792969 216.691406 286.726562 216.675781 288.65625 216.675781 C 289.292969 216.722656 289.96875 216.59375 290.425781 216.109375 C 291.648438 214.945312 290.730469 212.710938 289.054688 212.773438 Z M 255.992188 140.980469 C 255.882812 140.738281 255.757812 140.523438 255.625 140.304688 C 255.773438 139.894531 255.914062 139.4375 256.03125 138.960938 C 256.046875 139.644531 256.085938 140.328125 256.144531 141.011719 C 256.101562 140.996094 256.046875 140.988281 255.992188 140.980469 Z M 256.441406 128.652344 C 256.371094 128.441406 256.285156 128.242188 256.167969 128.046875 C 256.433594 127.953125 256.699219 127.851562 256.960938 127.738281 C 256.707031 127.976562 256.519531 128.289062 256.441406 128.652344 Z M 256.386719 105.496094 C 256.535156 106.046875 256.652344 106.472656 256.726562 106.902344 C 256.621094 106.792969 256.496094 106.699219 256.363281 106.613281 C 256.316406 106.304688 256.269531 106 256.230469 105.691406 C 256.285156 105.628906 256.332031 105.558594 256.386719 105.496094 Z M 253.683594 119.207031 C 253.691406 118.863281 253.707031 118.53125 253.714844 118.1875 C 253.816406 118.171875 253.925781 118.15625 254.035156 118.125 C 257.101562 117.457031 258.988281 117.722656 259.640625 119.003906 C 259.664062 119.082031 259.6875 119.175781 259.710938 119.273438 C 259.710938 119.335938 259.710938 119.40625 259.710938 119.484375 C 259.679688 119.625 259.625 119.847656 259.546875 120.042969 C 259.539062 120.066406 259.53125 120.082031 259.523438 120.105469 C 259.5 120.167969 259.46875 120.222656 259.445312 120.285156 C 258.667969 121.710938 258.613281 121.582031 258.125 122.179688 C 256.683594 123.597656 255.726562 124.171875 254.515625 124.554688 C 254.460938 124.554688 254.414062 124.5625 254.359375 124.5625 C 254.351562 124.5625 254.351562 124.5625 254.34375 124.554688 C 254.265625 124.515625 254.191406 124.484375 254.121094 124.4375 C 254.019531 124.367188 253.933594 124.3125 253.871094 124.273438 C 253.683594 124.113281 253.5 123.949219 253.25 123.886719 C 253.179688 123.847656 253.101562 123.839844 253.035156 123.816406 C 253.375 122.292969 253.601562 120.765625 253.683594 119.207031 Z M 117.421875 138.410156 C 117.429688 138.125 117.429688 137.828125 117.398438 137.550781 C 117.675781 137.496094 117.957031 137.433594 118.226562 137.355469 C 117.925781 137.640625 117.652344 138 117.421875 138.410156 Z M 122.660156 135.648438 C 122.527344 135.585938 122.390625 135.53125 122.25 135.5 C 122.644531 135.234375 123.011719 134.972656 123.335938 134.699219 C 123.367188 135.050781 123.414062 135.390625 123.453125 135.742188 C 123.195312 135.648438 122.925781 135.625 122.660156 135.648438 Z M 123.171875 130.515625 C 122.621094 130.429688 122.039062 130.570312 121.574219 131.050781 C 121.324219 131.277344 121.746094 130.925781 121.863281 130.851562 C 120.464844 132 121.148438 131.609375 119.671875 132.511719 C 119.441406 132.683594 118.546875 133.101562 118.175781 133.28125 C 116.296875 133.984375 115.945312 133.824219 115.605469 133.800781 C 113.089844 133.242188 112.058594 132.070312 111.636719 130.886719 C 110.921875 128.039062 114.003906 124.148438 118.964844 123.023438 C 120.929688 122.558594 120.355469 122.714844 122.4375 122.457031 C 122.925781 122.457031 123.40625 122.265625 123.761719 121.921875 C 123.335938 124.785156 123.164062 127.675781 123.171875 130.515625 Z M 222.363281 82.914062 C 222.476562 83.097656 222.585938 83.292969 222.710938 83.472656 C 222.703125 83.480469 222.703125 83.480469 222.695312 83.488281 C 222.40625 83.347656 222.097656 83.230469 221.789062 83.144531 C 221.980469 83.082031 222.167969 83 222.363281 82.914062 Z M 183.328125 96.792969 C 183.375 96.769531 183.421875 96.746094 183.46875 96.714844 C 183.429688 96.886719 183.4375 97.058594 183.453125 97.21875 C 183.242188 97.226562 183.042969 97.226562 182.832031 97.234375 C 183.003906 97.089844 183.167969 96.941406 183.328125 96.792969 Z M 153.96875 69.863281 C 153.96875 69.949219 153.984375 70.035156 154 70.121094 C 153.542969 70.296875 153.09375 70.484375 152.640625 70.679688 C 152.300781 70.832031 151.867188 71.027344 151.359375 71.269531 C 152.214844 70.78125 153.09375 70.320312 153.96875 69.863281 Z M 127.171875 126.796875 C 127.488281 118.925781 129.765625 111.542969 135.097656 106.257812 C 135.230469 106.125 135.371094 106 135.515625 105.875 C 135.773438 105.914062 136.042969 105.90625 136.324219 105.820312 C 143.03125 104.035156 147.324219 103.695312 153.84375 102.996094 C 155.691406 102.785156 157.554688 102.808594 159.402344 102.671875 C 161.234375 102.507812 163.042969 102.15625 164.859375 101.863281 C 164.859375 101.863281 164.867188 101.863281 164.867188 101.863281 C 167.167969 101.589844 170.109375 101.605469 172.894531 101.621094 C 174.222656 101.792969 175.550781 101.910156 176.871094 101.988281 C 178.105469 102.019531 178.964844 101.785156 179.546875 101.414062 C 179.898438 101.367188 180.222656 101.3125 180.496094 101.242188 C 183.546875 101.164062 186.574219 100.839844 189.617188 100.605469 C 190.609375 100.480469 191.699219 100.738281 192.644531 100.378906 C 193.5625 100.070312 193.917969 99.058594 193.902344 98.167969 C 193.902344 98.144531 193.902344 98.128906 193.902344 98.105469 C 193.917969 98.011719 193.933594 97.917969 193.957031 97.824219 C 193.988281 97.71875 194.035156 97.617188 194.066406 97.515625 C 194.089844 97.46875 194.113281 97.421875 194.144531 97.359375 C 194.789062 96.125 195.554688 94.960938 196.347656 93.8125 C 196.449219 94.386719 196.558594 94.960938 196.6875 95.527344 C 197.558594 99.394531 198.039062 102.515625 202.90625 101.351562 C 207.703125 100.589844 211.183594 99.8125 215.027344 99.597656 C 219.273438 99.371094 223.527344 99.605469 227.765625 99.425781 C 232.210938 98.828125 236.699219 98.976562 241.179688 98.953125 C 243.230469 99.007812 244.339844 98.796875 245.292969 99.152344 C 246.847656 99.363281 246.683594 99.605469 247.753906 99.8125 C 247.980469 100.171875 248.210938 100.542969 248.4375 100.90625 C 248.648438 102.515625 249.316406 104.011719 249.570312 105.621094 C 249.890625 106.847656 250.082031 110.773438 249.96875 113.617188 C 249.882812 117.417969 249.945312 120.5625 249.246094 123.078125 C 247.621094 129.585938 244.292969 134.902344 239.679688 139.667969 C 236.273438 143.101562 231.5625 147.6875 228.945312 149.589844 C 221.089844 155.296875 213.449219 159.199219 205.167969 161.824219 C 199.34375 163.71875 193.667969 166.117188 187.675781 167.429688 C 183.105469 168.679688 172.257812 168.398438 168.128906 167.675781 C 159.535156 166.535156 146.261719 163.269531 140.191406 158.105469 C 135.554688 154.675781 131.84375 148.464844 130.136719 144.871094 C 127.171875 138.410156 126.785156 133.863281 127.171875 126.796875 Z M 234.199219 150.203125 C 234.183594 150.242188 234.175781 150.273438 234.167969 150.3125 C 233.84375 150.589844 233.640625 150.933594 233.523438 151.296875 C 233.429688 151.195312 233.339844 151.109375 233.238281 151.042969 C 233.5625 150.761719 233.875 150.476562 234.199219 150.203125 Z M 226.164062 306.597656 C 226.132812 309.824219 226.210938 313.070312 225.941406 316.300781 C 225.667969 316.253906 225.34375 316.183594 225.179688 316.121094 C 223.089844 315.546875 220.980469 314.972656 218.820312 314.746094 C 216.460938 314.429688 214.078125 314.539062 211.71875 314.265625 C 205.617188 313.621094 199.964844 312.800781 192.449219 310.710938 C 186.769531 308.816406 180.960938 309.546875 175.125 309.941406 C 168.75 310.074219 162.324219 309.585938 156.003906 310.648438 C 151.351562 311.574219 148.96875 312.15625 144.839844 312.597656 C 145.011719 312.574219 145.179688 312.550781 145.351562 312.527344 C 143.902344 312.699219 142.441406 312.90625 141.074219 313.421875 C 140.734375 313.542969 140.398438 313.691406 140.074219 313.839844 C 140.074219 312.566406 140.121094 311.292969 140.003906 310.027344 C 139.777344 308.429688 139.800781 309.035156 139.808594 307.03125 C 139.863281 304.773438 139.785156 305.128906 140.058594 303.351562 C 140.121094 300.898438 140.058594 298.445312 140.082031 295.984375 C 139.964844 291.125 140.382812 286.289062 140.351562 281.429688 C 140.230469 276.421875 140.625 271.421875 140.601562 266.414062 C 140.5 261.339844 139.855469 256.277344 140.214844 251.191406 C 140.539062 247.355469 140.554688 245.238281 141.222656 242.28125 C 141.261719 241.929688 141.355469 241.582031 141.457031 241.238281 C 141.6875 241.246094 141.929688 241.261719 142.160156 241.261719 C 147.496094 241.207031 152.804688 241.652344 158.136719 241.597656 C 159.503906 241.597656 160.871094 241.597656 162.230469 241.597656 C 162.734375 241.628906 163.285156 241.589844 163.742188 241.378906 C 163.75 241.386719 163.757812 241.402344 163.773438 241.417969 C 164.730469 242.535156 165.917969 243.367188 167.230469 243.933594 C 168.128906 243.925781 169.039062 243.933594 169.90625 244.160156 C 170.417969 244.289062 170.917969 244.492188 171.367188 244.757812 C 172.003906 244.75 172.640625 244.703125 173.277344 244.578125 C 173.726562 244.5 174.191406 244.414062 174.664062 244.320312 C 174.921875 246.71875 175.238281 249.113281 175.464844 251.519531 C 175.605469 252.363281 175.496094 253.273438 175.722656 254.09375 C 175.039062 255.035156 175.371094 256.089844 176.101562 256.679688 C 176.761719 258.417969 177.746094 260.019531 178.765625 261.578125 C 178.695312 262.175781 178.875 262.773438 179.433594 263.261719 C 179.71875 263.589844 180.085938 263.839844 180.542969 263.96875 C 181.304688 264.855469 182.101562 265.625 182.839844 266.175781 C 183.21875 266.507812 183.273438 266.648438 182.910156 266.152344 C 183.042969 266.328125 183.1875 266.5 183.328125 266.679688 C 183.351562 266.71875 183.382812 266.757812 183.398438 266.804688 C 183.382812 266.78125 183.375 266.75 183.359375 266.71875 C 183.367188 266.726562 183.375 266.742188 183.382812 266.75 C 183.40625 266.8125 183.4375 266.882812 183.476562 266.972656 C 183.664062 267.339844 183.964844 267.585938 184.316406 267.75 C 183.863281 268.898438 184.59375 270.5 186.09375 270.46875 C 192.582031 270.980469 199.089844 271.351562 205.585938 271.828125 C 207.238281 271.996094 207.394531 272.105469 210.320312 272.46875 C 211.316406 272.492188 212.410156 272.796875 213.347656 272.433594 C 214.613281 272.003906 214.933594 270.179688 213.96875 269.289062 C 213.222656 268.527344 212.136719 268.753906 211.175781 268.667969 C 208.589844 268.464844 206.757812 267.921875 202.714844 267.734375 C 198.761719 267.488281 194.820312 267.230469 190.875 266.941406 C 189.585938 266.835938 188.296875 266.734375 187.007812 266.648438 C 187.140625 266.238281 187.140625 265.785156 187.148438 265.351562 C 187.265625 263.808594 187.25 264.242188 187.335938 263.488281 C 187.667969 261.152344 188.507812 256.859375 187.605469 253.070312 C 187.566406 252.882812 187.542969 252.691406 187.511719 252.503906 C 187.550781 251.84375 187.28125 251.230469 186.832031 250.820312 C 186.769531 250.019531 186.613281 249.21875 186.511719 248.597656 C 185.6875 245.554688 185.207031 242.433594 184.402344 239.382812 C 183.980469 238.28125 183.988281 236.816406 183.050781 236.023438 C 185.535156 233.429688 184.960938 228.207031 181.195312 227.28125 C 181.226562 227.164062 181.265625 227.058594 181.296875 226.941406 C 181.777344 225.125 181.449219 223.167969 180.511719 221.605469 C 180.96875 220.480469 180.660156 219.191406 180.457031 217.988281 C 180.699219 218.097656 180.960938 218.160156 181.257812 218.152344 C 185.308594 217.917969 189.375 217.933594 193.398438 218.503906 C 196.644531 218.8125 199.917969 218.742188 203.171875 218.757812 C 207.128906 218.703125 211.082031 218.230469 215.035156 217.941406 C 216.089844 217.890625 217.152344 217.867188 218.207031 217.859375 C 217.90625 218.035156 217.59375 218.214844 217.300781 218.402344 C 217.128906 218.480469 217.136719 218.480469 217.214844 218.457031 C 217.191406 218.472656 217.160156 218.472656 217.128906 218.488281 C 216.835938 218.648438 216.601562 218.90625 216.4375 219.191406 C 214.972656 219.308594 213.527344 219.644531 212.160156 220.195312 C 210.964844 220.644531 209.785156 221.289062 209.070312 222.375 C 208.722656 222.878906 208.527344 223.4375 208.449219 224.007812 C 205.207031 224.058594 201.984375 223.640625 198.738281 223.703125 C 194.445312 223.347656 190.121094 223.410156 185.867188 224.097656 C 184.640625 224.394531 183.003906 224.316406 182.265625 225.511719 C 181.371094 226.933594 182.847656 228.859375 184.453125 228.359375 C 190.082031 226.863281 197.25 227.453125 204.328125 227.792969 C 206.292969 227.933594 208.273438 227.886719 210.242188 227.886719 C 210.484375 228.042969 210.742188 228.167969 211.011719 228.269531 C 210.941406 228.375 210.863281 228.484375 210.800781 228.59375 C 208.761719 232.132812 210.335938 234.960938 213.023438 235.726562 C 212.976562 236.855469 213.402344 237.933594 214.535156 238.632812 C 215.09375 239.003906 215.730469 239.253906 216.398438 239.382812 C 216.679688 242.433594 220.769531 243.28125 223.589844 242.25 C 224.125 242.550781 224.769531 242.707031 225.421875 242.746094 C 225.398438 242.855469 225.375 242.957031 225.367188 243.070312 C 225.375 245.113281 225.722656 244.734375 225.628906 246.039062 C 225.722656 251.152344 225.179688 256.246094 225.40625 261.355469 C 225.320312 264.738281 226.027344 266.957031 226.109375 269.203125 C 226.367188 274.292969 225.878906 279.371094 225.910156 284.464844 C 226.003906 291.863281 226.28125 299.222656 226.164062 306.597656 Z M 176.839844 227.878906 C 176.738281 228.105469 176.519531 228.453125 176.449219 228.578125 C 176.414062 228.625 176.359375 228.671875 176.320312 228.71875 C 175.410156 230.152344 176.871094 232.101562 178.5 231.597656 C 178.78125 231.535156 179.019531 231.386719 179.230469 231.210938 C 179.433594 231.132812 179.71875 231.0625 179.890625 231.023438 C 179.960938 231.023438 180.023438 231.023438 180.078125 231.023438 C 180.175781 231.046875 180.277344 231.070312 180.371094 231.101562 C 180.378906 231.109375 180.386719 231.109375 180.394531 231.117188 C 180.410156 231.132812 180.425781 231.140625 180.433594 231.15625 C 180.480469 231.226562 180.527344 231.304688 180.566406 231.371094 C 180.589844 231.441406 180.613281 231.503906 180.636719 231.574219 C 180.652344 231.636719 180.660156 231.691406 180.667969 231.738281 C 180.675781 231.863281 180.691406 231.988281 180.691406 232.109375 C 180.683594 232.1875 180.683594 232.257812 180.675781 232.320312 C 180.644531 232.484375 180.613281 232.644531 180.566406 232.808594 C 180.488281 232.964844 180.402344 233.128906 180.300781 233.265625 C 180.261719 233.3125 180.238281 233.351562 180.207031 233.382812 C 180.136719 233.476562 180.0625 233.5625 179.984375 233.648438 C 179.78125 233.863281 179.578125 234.074219 179.363281 234.277344 C 178.765625 234.664062 178.089844 235.03125 177.925781 235.78125 C 177.585938 236.914062 178.421875 238.035156 179.523438 238.226562 C 179.546875 238.25 179.5625 238.273438 179.585938 238.289062 C 179.609375 238.320312 179.632812 238.359375 179.65625 238.390625 C 179.679688 238.429688 179.703125 238.476562 179.726562 238.515625 C 179.734375 238.539062 179.742188 238.5625 179.75 238.585938 C 179.726562 238.6875 179.695312 238.777344 179.664062 238.855469 C 179.632812 238.910156 179.609375 238.949219 179.59375 238.980469 C 179.464844 239.113281 179.332031 239.246094 179.238281 239.324219 C 179.222656 239.332031 179.214844 239.335938 179.199219 239.351562 C 178.980469 239.5 178.75 239.632812 178.507812 239.75 C 178.351562 239.796875 178.207031 239.835938 178.105469 239.859375 C 178.003906 239.867188 177.902344 239.875 177.800781 239.875 C 177.390625 239.460938 176.824219 239.238281 176.1875 239.351562 C 175.550781 239.398438 175.046875 239.804688 174.757812 240.339844 C 173.632812 240.71875 170.296875 241.101562 169.945312 240.828125 C 168.074219 240.511719 166.800781 239.121094 165.917969 237.933594 C 165.699219 237.667969 165.503906 237.359375 165.320312 237.046875 C 165.335938 237.007812 165.351562 236.960938 165.367188 236.921875 C 165.746094 235.820312 166.046875 235.6875 166.824219 233.191406 C 167.617188 229.8125 167.828125 225.449219 168.214844 223.144531 C 168.601562 223.355469 169.078125 223.421875 169.589844 223.277344 C 176.808594 220.855469 178.949219 223.515625 176.839844 227.878906 Z M 170.3125 207.285156 C 171.203125 207.003906 172.089844 206.695312 172.996094 206.53125 C 173.570312 206.375 174.082031 206.328125 174.882812 206.304688 C 175.15625 209.15625 175.621094 211.988281 176.140625 214.808594 C 176.21875 215.503906 176.351562 216.382812 176.589844 218.207031 C 176.613281 218.339844 176.652344 218.570312 176.683594 218.789062 C 175.386719 218.441406 174.042969 218.449219 172.726562 218.601562 C 171.886719 215.023438 171.070312 210.117188 170.3125 207.285156 Z M 179.410156 252.1875 C 179.402344 252.1875 179.402344 252.1875 179.410156 252.1875 C 179.316406 251.167969 179.214844 250.160156 179.089844 249.148438 C 178.910156 247.332031 178.695312 245.523438 178.484375 243.714844 C 179.441406 243.609375 180.378906 243.226562 181.195312 242.683594 C 181.589844 244.390625 181.941406 246.113281 182.296875 247.832031 C 182.761719 249.640625 182.863281 249.785156 182.917969 250.757812 C 181.878906 251.167969 180.796875 251.574219 179.410156 252.1875 Z M 183.933594 254.507812 C 183.949219 254.578125 183.964844 254.648438 183.972656 254.707031 C 183.988281 254.808594 184.003906 254.886719 184.011719 254.949219 C 184.082031 255.585938 184.121094 256.214844 184.128906 256.851562 C 183.792969 256.921875 183.4375 257.054688 183.074219 257.222656 C 182.390625 257.410156 181.746094 257.722656 181.148438 258.125 C 180.757812 257.480469 180.378906 256.796875 180.054688 256.113281 C 180.144531 256.066406 180.246094 256.027344 180.339844 255.988281 C 181.164062 255.59375 182.792969 254.957031 183.933594 254.507812 Z M 227.554688 237.863281 C 227.429688 237.988281 227.320312 238.089844 227.214844 238.179688 C 227.207031 238.148438 227.207031 238.125 227.199219 238.097656 C 226.933594 237.046875 225.730469 236.410156 224.714844 236.769531 C 224.007812 237.015625 223.449219 237.550781 223.035156 238.195312 C 222.136719 238.792969 220.949219 238.941406 220.34375 238.777344 C 220.351562 238.761719 220.351562 238.753906 220.359375 238.738281 C 221.089844 238.289062 221.6875 237.644531 222.027344 236.816406 C 222.523438 235.207031 220.722656 233.6875 219.226562 234.453125 C 218.660156 234.734375 218.167969 235.160156 217.765625 235.652344 C 217.742188 235.660156 217.726562 235.660156 217.710938 235.667969 C 217.59375 235.671875 217.472656 235.671875 217.355469 235.667969 C 217.230469 235.644531 217.105469 235.613281 216.988281 235.574219 C 217.011719 235.535156 217.027344 235.496094 217.050781 235.457031 C 217.363281 235.324219 217.671875 235.175781 217.984375 234.992188 C 221.484375 232.839844 218.03125 229.011719 215.195312 231.753906 C 215.0625 231.855469 214.933594 231.964844 214.808594 232.070312 C 214.777344 232.078125 214.746094 232.078125 214.722656 232.085938 C 214.597656 232.09375 214.472656 232.09375 214.375 232.085938 C 214.21875 232.046875 214.0625 232.007812 213.914062 231.949219 C 213.851562 231.910156 213.800781 231.878906 213.753906 231.855469 C 213.753906 231.855469 213.746094 231.847656 213.746094 231.847656 C 213.746094 231.839844 213.746094 231.824219 213.746094 231.816406 C 214.226562 230.023438 214.125 230.324219 215.878906 228.5625 C 216.011719 228.476562 216.066406 228.4375 216.050781 228.421875 C 216.066406 228.40625 216.082031 228.398438 216.097656 228.382812 C 216.082031 228.390625 216.066406 228.40625 216.050781 228.421875 C 216.042969 228.414062 216.027344 228.414062 216.003906 228.421875 C 216.191406 228.328125 216.367188 228.222656 216.539062 228.089844 C 217.757812 226.957031 216.835938 224.710938 215.164062 224.773438 C 214.824219 224.773438 214.496094 224.882812 214.1875 225.054688 C 214.1875 225.046875 214.1875 225.046875 214.1875 225.039062 C 214.03125 225.078125 214.496094 224.9375 214.589844 224.875 C 214.449219 224.929688 214.304688 224.953125 214.15625 224.984375 C 213.945312 225 213.738281 225.007812 213.519531 224.992188 C 213.503906 224.992188 213.488281 224.992188 213.472656 224.984375 C 213.355469 224.960938 213.15625 224.914062 212.96875 224.859375 C 212.9375 224.851562 212.898438 224.835938 212.867188 224.820312 C 212.820312 224.757812 212.78125 224.695312 212.71875 224.640625 C 212.625 224.550781 212.519531 224.488281 212.410156 224.417969 C 212.417969 224.410156 212.425781 224.402344 212.425781 224.394531 C 212.566406 224.300781 212.695312 224.199219 212.84375 224.121094 C 213.261719 223.890625 214.589844 223.355469 216.246094 223.074219 C 216.367188 223.058594 216.523438 223.050781 216.671875 223.050781 C 217.074219 223.042969 217.496094 223.003906 217.875 222.871094 C 220.910156 226.542969 223.597656 229.472656 225.613281 232.761719 C 226.722656 234.84375 227.019531 235.652344 227.757812 237.621094 C 227.6875 237.722656 227.617188 237.792969 227.554688 237.863281 Z M 269.125 210.847656 C 268.972656 211.144531 268.605469 211.871094 268.457031 212.089844 C 267.582031 213.496094 266.539062 214.792969 265.609375 216.15625 C 263.839844 218.464844 262.0625 220.941406 258.972656 223.445312 C 258.296875 224.050781 252.488281 227.648438 249.980469 228.957031 C 248.414062 229.820312 246.730469 230.433594 245.128906 231.226562 C 243.65625 231.964844 242.257812 232.855469 240.738281 233.5 C 238.277344 234.8125 234.191406 236.21875 233.277344 236.707031 C 232.234375 237.117188 232.175781 237.210938 231.871094 237.351562 C 231.847656 237.367188 231.832031 237.375 231.816406 237.382812 C 231.808594 237.382812 231.800781 237.390625 231.777344 237.398438 C 230.972656 235.023438 230.015625 232.675781 228.78125 230.496094 C 226.980469 227.699219 223.277344 223.222656 221.089844 220.691406 C 221.203125 220.628906 221.3125 220.566406 221.429688 220.519531 C 224.101562 218.875 226.800781 217.289062 229.613281 215.886719 C 232.242188 214.269531 234.921875 212.773438 237.746094 211.523438 C 240.222656 210.421875 243.382812 209.148438 246.886719 207.410156 C 248.625 206.648438 248.429688 206.664062 249.554688 206.265625 C 250.042969 206.082031 250.632812 206.066406 251.03125 205.683594 C 252.949219 204.125 250.976562 201.40625 248.785156 202.441406 C 243.703125 204.414062 240.519531 206.273438 236.03125 208.054688 C 233.152344 209.339844 230.386719 210.839844 227.710938 212.5 C 226.203125 213.277344 224.707031 214.070312 223.238281 214.90625 C 223.007812 214.425781 222.59375 214.039062 222.035156 213.90625 C 221.585938 213.765625 221.136719 213.875 220.683594 213.953125 C 220.078125 214 219.472656 213.96875 218.867188 213.984375 C 215.035156 213.90625 211.238281 214.511719 207.417969 214.660156 C 204.070312 215 200.710938 214.890625 197.347656 214.84375 C 192.886719 214.753906 188.460938 213.875 183.980469 214.171875 C 182.683594 214.355469 181.109375 213.929688 180.023438 214.753906 C 179.5625 211.742188 178.957031 208.921875 178.671875 205.421875 C 178.59375 204.894531 178.640625 204.367188 178.539062 203.835938 C 178.320312 203.015625 177.515625 202.402344 176.660156 202.410156 C 174.734375 202.371094 172.785156 202.480469 170.9375 203.054688 C 169.929688 203.277344 168.953125 203.636719 167.949219 203.914062 C 166.617188 203.882812 165.566406 205.265625 166.011719 206.507812 C 166.019531 206.554688 166.046875 206.6875 166.125 206.902344 C 166.375 207.539062 166.644531 208.699219 167.105469 210.484375 C 167.585938 212.59375 167.941406 214.730469 168.371094 216.855469 C 167.601562 216.179688 166.367188 216.078125 165.40625 215.800781 C 163.71875 215.445312 162.058594 215.007812 160.40625 214.558594 C 156.167969 213.472656 152.011719 212.097656 147.796875 210.957031 C 144.320312 210.101562 140.828125 209.371094 137.410156 208.308594 C 135.5 207.757812 133.53125 207.441406 131.582031 207.035156 C 130.546875 206.910156 129.539062 206.382812 128.507812 206.46875 C 126.449219 206.65625 126.253906 209.746094 128.25 210.25 C 130.371094 210.800781 132.542969 211.144531 134.6875 211.609375 C 136.882812 212.121094 139.019531 212.875 141.214844 213.410156 C 147.246094 214.589844 153.046875 216.648438 158.984375 218.191406 C 160.941406 218.757812 162.9375 219.199219 164.90625 219.683594 C 164.300781 222.824219 163.566406 229.679688 163.449219 230.277344 C 162.851562 233.796875 162.609375 233.375 161.800781 235.433594 C 161.3125 235.789062 160.980469 236.355469 160.988281 236.992188 C 160.980469 237.203125 161.019531 237.390625 161.082031 237.566406 C 161.066406 237.628906 161.042969 237.683594 161.035156 237.746094 C 158.667969 237.746094 156.304688 237.746094 153.9375 237.714844 C 151.78125 237.738281 149.636719 237.460938 147.480469 237.445312 C 142.191406 237.605469 136.945312 237.046875 131.699219 236.472656 C 123.398438 235.574219 118.25 234.417969 111.832031 227.792969 C 107.011719 223.324219 105.304688 219.582031 103.632812 214.117188 C 102.941406 211.320312 104.660156 205.5625 106.878906 202.050781 C 108.46875 199.652344 113.632812 193.566406 116 191.96875 C 116.535156 191.601562 117.085938 191.261719 117.636719 190.921875 C 119.992188 188.652344 122.917969 186.757812 125.859375 184.863281 C 126.1875 184.65625 126.527344 184.539062 126.867188 184.492188 C 127.785156 183.605469 128.585938 182.597656 129.703125 181.882812 C 129.871094 181.773438 130.042969 181.660156 130.214844 181.542969 C 130.261719 181.511719 130.308594 181.480469 130.355469 181.449219 C 130.882812 181.09375 131.410156 180.734375 131.945312 180.394531 C 132.179688 181.363281 132.304688 181.363281 132.316406 180.402344 C 132.410156 180.183594 132.503906 179.964844 132.589844 179.75 C 133.839844 178.351562 135.160156 177.925781 136.710938 176.84375 C 136.773438 176.800781 136.828125 176.753906 136.890625 176.707031 C 138.40625 175.609375 139.707031 174.175781 141.253906 173.089844 C 144.039062 171.132812 146.929688 168.152344 150.40625 167.738281 C 150.367188 167.652344 150.320312 167.570312 150.273438 167.492188 C 150.492188 167.5625 150.707031 167.632812 150.925781 167.699219 C 151.351562 167.683594 151.789062 167.691406 152.238281 167.761719 C 153.738281 167.996094 155.3125 168.46875 156.625 169.300781 C 158.511719 169.796875 160.398438 170.253906 162.308594 170.628906 C 163.105469 170.691406 164.015625 170.835938 164.921875 171.078125 C 165.039062 171.09375 165.164062 171.117188 165.28125 171.132812 C 171.375 172.132812 182.296875 172.933594 190.136719 170.8125 C 195.191406 169.554688 200.027344 167.585938 204.964844 165.960938 C 208.597656 164.804688 212.183594 163.429688 215.660156 161.847656 C 215.878906 162.25 216.261719 162.59375 216.84375 162.761719 C 221.34375 163.398438 223.589844 164.511719 227.167969 165.785156 C 231.070312 167.210938 232.832031 167.675781 236.023438 169.464844 C 237.210938 170.105469 238.261719 170.976562 239.410156 171.691406 C 240.898438 172.597656 242.46875 173.359375 243.941406 174.292969 C 246.621094 175.992188 245.734375 175.9375 249.082031 177.800781 C 252 179.042969 251.574219 178.808594 253.738281 180.503906 C 254.429688 181.023438 255.214844 181.378906 255.984375 181.765625 C 256.113281 181.851562 256.214844 181.914062 256.292969 181.960938 C 256.128906 182.078125 255.976562 182.203125 255.804688 182.304688 C 260.992188 185.734375 266.488281 188.605469 268.535156 192.386719 C 271.160156 198.054688 271.75 203.828125 269.125 210.847656 Z M 269.125 210.847656 " fill-opacity="1" fill-rule="nonzero"/></g><path fill="#ffffff" d="M 211.230469 292.042969 C 208.910156 291.777344 206.570312 291.980469 204.242188 291.878906 C 200.945312 291.777344 197.644531 291.550781 194.335938 291.667969 C 189.277344 291.667969 183.78125 292.746094 180.253906 293.253906 C 178.097656 293.476562 175.929688 293.648438 173.765625 293.742188 C 172.902344 293.8125 171.902344 293.671875 171.257812 294.371094 C 170.039062 295.511719 170.953125 297.738281 172.632812 297.683594 C 175.859375 297.53125 179.089844 297.320312 182.289062 296.878906 C 186.0625 296.25 187.289062 295.96875 190.671875 295.726562 C 197.085938 295.214844 203.496094 295.90625 209.917969 295.804688 C 210.710938 295.675781 210.894531 296.296875 212.410156 295.691406 C 214.179688 294.625 213.269531 291.941406 211.230469 292.042969 Z M 211.230469 292.042969 " fill-opacity="1" fill-rule="nonzero"/><path fill="#ffffff" d="M 192.378906 281.585938 C 191.730469 280.910156 190.789062 281.03125 189.933594 280.917969 C 189.828125 280.902344 189.765625 280.894531 189.71875 280.894531 C 189.6875 280.886719 189.65625 280.886719 189.609375 280.878906 C 184.5 280.15625 179.324219 279.628906 174.160156 279.621094 C 168.191406 279.9375 162.191406 280.03125 156.242188 280.714844 C 155.3125 280.847656 154.359375 280.980469 153.425781 281.132812 C 152.703125 281.351562 151.84375 281.320312 151.238281 281.824219 C 149.542969 283.027344 150.933594 285.816406 152.929688 285.21875 C 157.664062 284.113281 162.5625 284.089844 168.476562 283.765625 C 175.722656 283.144531 184.128906 283.914062 189.726562 284.773438 C 190.394531 284.8125 191.132812 285.054688 191.753906 284.726562 C 193.015625 284.300781 193.34375 282.484375 192.378906 281.585938 Z M 192.378906 281.585938 " fill-opacity="1" fill-rule="nonzero"/><path fill="#ffffff" d="M 212.019531 114.128906 C 210.941406 113.257812 209.4375 113.132812 208.101562 112.949219 C 202.992188 112.496094 197.863281 113.265625 192.839844 114.175781 C 190.9375 114.539062 188.933594 114.71875 187.023438 115.183594 C 184.617188 112.863281 180.261719 112.484375 176.964844 112.273438 C 172.902344 112.234375 168.640625 112.320312 165.085938 114.523438 C 164.371094 115.027344 163.441406 115.457031 163.199219 116.371094 C 162.703125 117.980469 164.621094 119.460938 166.046875 118.5625 C 169.285156 116.355469 170.425781 116.371094 174.285156 116.183594 C 178.105469 116.132812 179.546875 116.191406 182.785156 117.054688 C 181.472656 118.109375 180.253906 119.4375 179.84375 121.089844 C 179.378906 123.117188 180.394531 125.5 182.351562 126.332031 C 184.277344 127.195312 186.417969 125.945312 187.542969 124.359375 C 188.578125 122.792969 188.941406 120.789062 188.769531 118.933594 C 188.761719 118.886719 188.753906 118.839844 188.746094 118.792969 C 192.195312 118.109375 196.238281 117.527344 198.179688 117.195312 C 201.535156 116.78125 204.941406 116.488281 208.316406 116.851562 C 209.4375 116.992188 210.539062 117.839844 211.617188 117.171875 C 212.710938 116.582031 212.90625 114.988281 212.019531 114.128906 Z M 183.878906 122.621094 C 183.855469 122.636719 183.832031 122.652344 183.800781 122.667969 C 183.792969 122.660156 183.78125 122.644531 183.773438 122.636719 C 183.757812 122.613281 183.75 122.597656 183.734375 122.574219 C 183.679688 122.179688 183.097656 122.03125 184.929688 120.332031 C 184.875 121.191406 184.585938 122.023438 183.878906 122.621094 Z M 183.878906 122.621094 " fill-opacity="1" fill-rule="nonzero"/><path fill="#ffffff" d="M 179.160156 134.4375 C 178.773438 133.039062 177.085938 132.269531 175.761719 132.726562 C 175.132812 132.667969 174.449219 132.929688 173.90625 133.691406 C 173.867188 133.753906 173.828125 133.824219 173.789062 133.886719 C 173.5 134.1875 173.261719 134.53125 173.097656 134.886719 C 172.484375 135.75 172.351562 136.914062 173.183594 137.75 C 173.890625 138.402344 174.773438 138.496094 175.628906 138.269531 C 175.652344 138.269531 175.683594 138.269531 175.707031 138.261719 C 177.570312 138.070312 179.648438 136.4375 179.160156 134.4375 Z M 179.160156 134.4375 " fill-opacity="1" fill-rule="nonzero"/><path fill="#ffffff" d="M 195.402344 132.457031 C 194.5 131.316406 192.566406 131.308594 191.542969 132.410156 C 190.65625 132.8125 189.898438 133.488281 189.585938 134.414062 C 189.152344 135.648438 189.890625 136.992188 191.078125 137.363281 C 192.070312 138.277344 194.214844 138 195.445312 137.207031 C 195.867188 136.96875 196.175781 136.632812 196.386719 136.246094 C 196.425781 136.199219 196.464844 136.160156 196.503906 136.105469 C 197.464844 134.628906 196.695312 133.1875 195.402344 132.457031 Z M 195.402344 132.457031 " fill-opacity="1" fill-rule="nonzero"/><path fill="#ffffff" d="M 183.925781 148.789062 C 183.902344 148.8125 183.902344 148.804688 183.925781 148.789062 Z M 183.925781 148.789062 " fill-opacity="1" fill-rule="nonzero"/><path fill="#ffffff" d="M 188.800781 148.984375 C 189.222656 148.238281 189.507812 147.429688 189.554688 146.578125 C 189.476562 143.675781 185.960938 142.960938 183.703125 143.851562 C 182.761719 144.265625 181.535156 144.613281 181.257812 145.730469 C 180.757812 147.339844 182.683594 148.8125 184.105469 147.921875 C 184.992188 147.523438 184.648438 147.570312 185.167969 147.453125 C 184.851562 148 184.914062 147.890625 184.089844 148.644531 C 184.027344 148.6875 183.988281 148.71875 183.988281 148.734375 C 183.988281 148.734375 183.980469 148.734375 183.980469 148.742188 C 183.980469 148.742188 183.980469 148.742188 183.988281 148.734375 C 183.988281 148.742188 184.003906 148.75 184.027344 148.75 C 183.917969 148.804688 183.808594 148.851562 183.71875 148.921875 C 182.234375 149.96875 183.066406 152.4375 184.875 152.398438 C 185.097656 152.40625 185.308594 152.367188 185.511719 152.292969 C 185.875 152.269531 186.246094 152.261719 186.621094 152.292969 C 186.683594 152.308594 186.738281 152.316406 186.800781 152.328125 C 186.847656 152.34375 186.890625 152.359375 186.9375 152.375 C 187.070312 152.445312 187.195312 152.523438 187.3125 152.609375 C 187.34375 152.640625 187.375 152.671875 187.40625 152.703125 C 187.40625 152.703125 187.40625 152.710938 187.40625 152.710938 C 187.40625 152.734375 187.40625 152.75 187.40625 152.78125 C 187.382812 152.882812 187.367188 152.980469 187.34375 153.074219 C 187.171875 154.109375 185.363281 155.464844 183.640625 156.25 C 182.351562 157.121094 182.816406 159.285156 184.300781 159.644531 C 185.308594 159.90625 186.285156 159.261719 187.132812 158.789062 C 188.21875 158.011719 189.328125 157.214844 190.105469 156.09375 C 192.007812 153.519531 191.558594 150.359375 188.800781 148.984375 Z M 188.800781 148.984375 " fill-opacity="1" fill-rule="nonzero"/><path fill="#ffffff" d="M 183.980469 148.75 C 183.957031 148.765625 183.941406 148.78125 183.925781 148.789062 C 183.933594 148.78125 183.949219 148.773438 183.980469 148.75 Z M 183.980469 148.75 " fill-opacity="1" fill-rule="nonzero"/></svg>